<?xml version="1.0" encoding="utf-8"?>
<!-- Generator: Adobe Illustrator 22.1.0, SVG Export Plug-In . SVG Version: 6.00 Build 0)  -->
<svg version="1.1" id="Layer_1" xmlns="http://www.w3.org/2000/svg" xmlns:xlink="http://www.w3.org/1999/xlink" x="0px" y="0px"
	 viewBox="0 0 24 24" style="enable-background:new 0 0 24 24;" xml:space="preserve">
<style type="text/css">
	.st0{display:none;}
	.st1{display:inline;fill:none;}
	.st2{fill:#FFFFFF;}
</style>
<g id="Bounding_Boxes" class="st0">
	<rect class="st1" width="24" height="24"/>
	<rect class="st1" width="24" height="24"/>
	<rect class="st1" width="24" height="24"/>
</g>
<g id="Rounded">
	<g>
		<path class="st2" d="M12,14c1.7,0,3-1.3,3-3V5c0-1.7-1.3-3-3-3S9,3.3,9,5v6C9,12.7,10.3,14,12,14z"/>
		<path class="st2" d="M17.9,11c-0.5,0-0.9,0.4-1,0.9C16.5,14.2,14.5,16,12,16s-4.5-1.8-4.9-4.1C7,11.4,6.6,11,6.1,11l0,0
			c-0.6,0-1.1,0.5-1,1.1c0.5,3,2.9,5.3,5.9,5.8V20c0,0.5,0.4,1,1,1l0,0c0.6,0,1-0.5,1-1v-2.1c3-0.4,5.4-2.8,5.9-5.8
			C19,11.5,18.5,11,17.9,11L17.9,11z"/>
	</g>
</g>
</svg>
