<?xml version="1.0" encoding="utf-8"?>
<!-- Generator: Adobe Illustrator 22.1.0, SVG Export Plug-In . SVG Version: 6.00 Build 0)  -->
<svg version="1.1" id="Layer_1" xmlns="http://www.w3.org/2000/svg" xmlns:xlink="http://www.w3.org/1999/xlink" x="0px" y="0px"
	 viewBox="0 0 24 24" style="enable-background:new 0 0 24 24;" xml:space="preserve">
<style type="text/css">
	.st0{display:none;}
	.st1{display:inline;fill:#F1F1F2;}
	.st2{fill:none;}
	.st3{fill:#FFFFFF;}
	.st4{display:inline;}
	.st5{opacity:0.3;enable-background:new    ;}
</style>
<g id="Header_x2F_BG" class="st0">
	<rect x="-138" y="-94" class="st1" width="520" height="520"/>
</g>
<g id="Bounding_Boxes">
	<g id="ui_x5F_spec_x5F_header_copy_3" class="st0">
	</g>
	<path class="st2" d="M0,0h24v24H0V0z"/>
</g>
<g id="Rounded">
	<g id="ui_x5F_spec_x5F_header_copy_5" class="st0">
	</g>
	<path class="st3" d="M12,2C6.5,2,2,6.5,2,12s4.5,10,10,10c5.5,0,10-4.5,10-10S17.5,2,12,2z M18.9,8H16c-0.3-1.2-0.8-2.4-1.4-3.6
		C16.4,5.1,18,6.3,18.9,8z M12,4c0.8,1.2,1.5,2.5,1.9,4h-3.8C10.5,6.6,11.2,5.2,12,4z M4.3,14C4.1,13.4,4,12.7,4,12s0.1-1.4,0.3-2
		h3.4c-0.1,0.7-0.1,1.3-0.1,2s0.1,1.3,0.1,2H4.3z M5.1,16H8c0.3,1.2,0.8,2.5,1.4,3.6C7.6,18.9,6,17.7,5.1,16z M8,8H5.1
		c1-1.7,2.5-2.9,4.3-3.6C8.8,5.6,8.4,6.8,8,8z M12,20c-0.8-1.2-1.5-2.5-1.9-4h3.8C13.5,17.4,12.8,18.8,12,20z M14.3,14H9.7
		c-0.1-0.7-0.2-1.3-0.2-2s0.1-1.4,0.2-2h4.7c0.1,0.6,0.2,1.3,0.2,2S14.4,13.3,14.3,14z M14.6,19.6c0.6-1.1,1.1-2.3,1.4-3.6h2.9
		C18,17.6,16.4,18.9,14.6,19.6z M16.4,14c0.1-0.7,0.1-1.3,0.1-2s-0.1-1.3-0.1-2h3.4c0.2,0.6,0.3,1.3,0.3,2s-0.1,1.4-0.3,2H16.4z"/>
</g>
<g id="Sharp" class="st0">
	<g id="ui_x5F_spec_x5F_header_copy_4" class="st4">
	</g>
	<path class="st4" d="M12,2C6.5,2,2,6.5,2,12s4.5,10,10,10c5.5,0,10-4.5,10-10S17.5,2,12,2z M18.9,8H16c-0.3-1.2-0.8-2.4-1.4-3.6
		C16.4,5.1,18,6.3,18.9,8z M12,4c0.8,1.2,1.5,2.5,1.9,4h-3.8C10.5,6.6,11.2,5.2,12,4z M4.3,14C4.1,13.4,4,12.7,4,12s0.1-1.4,0.3-2
		h3.4c-0.1,0.7-0.1,1.3-0.1,2s0.1,1.3,0.1,2H4.3z M5.1,16H8c0.3,1.2,0.8,2.5,1.4,3.6C7.6,18.9,6,17.7,5.1,16z M8,8H5.1
		c1-1.7,2.5-2.9,4.3-3.6C8.8,5.6,8.4,6.8,8,8z M12,20c-0.8-1.2-1.5-2.5-1.9-4h3.8C13.5,17.4,12.8,18.8,12,20z M14.3,14H9.7
		c-0.1-0.7-0.2-1.3-0.2-2s0.1-1.4,0.2-2h4.7c0.1,0.6,0.2,1.3,0.2,2S14.4,13.3,14.3,14z M14.6,19.6c0.6-1.1,1.1-2.3,1.4-3.6h2.9
		C18,17.6,16.4,18.9,14.6,19.6z M16.4,14c0.1-0.7,0.1-1.3,0.1-2s-0.1-1.3-0.1-2h3.4c0.2,0.6,0.3,1.3,0.3,2s-0.1,1.4-0.3,2H16.4z"/>
</g>
<g id="Outline" class="st0">
	<g id="ui_x5F_spec_x5F_header" class="st4">
	</g>
	<path class="st4" d="M12,2C6.5,2,2,6.5,2,12s4.5,10,10,10c5.5,0,10-4.5,10-10S17.5,2,12,2z M18.9,8H16c-0.3-1.2-0.8-2.4-1.4-3.6
		C16.4,5.1,18,6.3,18.9,8z M12,4c0.8,1.2,1.5,2.5,1.9,4h-3.8C10.5,6.6,11.2,5.2,12,4z M4.3,14C4.1,13.4,4,12.7,4,12s0.1-1.4,0.3-2
		h3.4c-0.1,0.7-0.1,1.3-0.1,2s0.1,1.3,0.1,2H4.3z M5.1,16H8c0.3,1.2,0.8,2.5,1.4,3.6C7.6,18.9,6,17.7,5.1,16z M8,8H5.1
		c1-1.7,2.5-2.9,4.3-3.6C8.8,5.6,8.4,6.8,8,8z M12,20c-0.8-1.2-1.5-2.5-1.9-4h3.8C13.5,17.4,12.8,18.8,12,20z M14.3,14H9.7
		c-0.1-0.7-0.2-1.3-0.2-2s0.1-1.4,0.2-2h4.7c0.1,0.6,0.2,1.3,0.2,2S14.4,13.3,14.3,14z M14.6,19.6c0.6-1.1,1.1-2.3,1.4-3.6h2.9
		C18,17.6,16.4,18.9,14.6,19.6z M16.4,14c0.1-0.7,0.1-1.3,0.1-2s-0.1-1.3-0.1-2h3.4c0.2,0.6,0.3,1.3,0.3,2s-0.1,1.4-0.3,2H16.4z"/>
</g>
<g id="Duotone" class="st0">
	<g id="ui_x5F_spec_x5F_header_copy_2" class="st4">
	</g>
	<g class="st4">
		<path class="st5" d="M5.1,8H8c0.3-1.2,0.8-2.4,1.4-3.6C7.6,5.1,6,6.3,5.1,8z"/>
		<path class="st5" d="M7.5,12c0-0.7,0.1-1.3,0.1-2H4.3C4.1,10.6,4,11.3,4,12s0.1,1.4,0.3,2h3.4C7.6,13.3,7.5,12.7,7.5,12z"/>
		<path class="st5" d="M5.1,16c1,1.7,2.5,2.9,4.3,3.6C8.8,18.4,8.4,17.2,8,16H5.1z"/>
		<path class="st5" d="M12,4c-0.8,1.2-1.5,2.5-1.9,4h3.8C13.5,6.6,12.8,5.2,12,4z"/>
		<path class="st5" d="M18.9,8c-1-1.7-2.5-2.9-4.3-3.6C15.2,5.6,15.6,6.8,16,8H18.9z"/>
		<path class="st5" d="M12,20c0.8-1.2,1.5-2.5,1.9-4h-3.8C10.5,17.4,11.2,18.8,12,20z"/>
		<path class="st5" d="M14.6,19.6c1.8-0.6,3.4-1.9,4.3-3.6H16C15.6,17.2,15.2,18.5,14.6,19.6z"/>
		<path class="st5" d="M19.7,10h-3.4c0.1,0.7,0.1,1.3,0.1,2s-0.1,1.3-0.1,2h3.4c0.2-0.6,0.3-1.3,0.3-2S19.9,10.6,19.7,10z"/>
		<path class="st5" d="M9.7,10c-0.1,0.6-0.2,1.3-0.2,2s0.1,1.3,0.2,2h4.7c0.1-0.7,0.2-1.3,0.2-2s-0.1-1.4-0.2-2H9.7z"/>
		<path d="M12,2C6.5,2,2,6.5,2,12s4.5,10,10,10c5.5,0,10-4.5,10-10S17.5,2,12,2z M18.9,8H16c-0.3-1.2-0.8-2.4-1.4-3.6
			C16.4,5.1,18,6.3,18.9,8z M12,4c0.8,1.2,1.5,2.5,1.9,4h-3.8C10.5,6.6,11.2,5.2,12,4z M4.3,14C4.1,13.4,4,12.7,4,12s0.1-1.4,0.3-2
			h3.4c-0.1,0.7-0.1,1.3-0.1,2s0.1,1.3,0.1,2H4.3z M5.1,16H8c0.3,1.2,0.8,2.5,1.4,3.6C7.6,18.9,6,17.7,5.1,16z M8,8H5.1
			c1-1.7,2.5-2.9,4.3-3.6C8.8,5.6,8.4,6.8,8,8z M12,20c-0.8-1.2-1.5-2.5-1.9-4h3.8C13.5,17.4,12.8,18.8,12,20z M14.3,14H9.7
			c-0.1-0.7-0.2-1.3-0.2-2s0.1-1.4,0.2-2h4.7c0.1,0.6,0.2,1.3,0.2,2S14.4,13.3,14.3,14z M14.6,19.6c0.6-1.1,1.1-2.3,1.4-3.6h2.9
			C18,17.6,16.4,18.9,14.6,19.6z M16.4,14c0.1-0.7,0.1-1.3,0.1-2s-0.1-1.3-0.1-2h3.4c0.2,0.6,0.3,1.3,0.3,2s-0.1,1.4-0.3,2H16.4z"/>
	</g>
</g>
<g id="Material" class="st0">
	<g id="ui_x5F_spec_x5F_header_copy" class="st4">
	</g>
	<path class="st4" d="M12,2C6.5,2,2,6.5,2,12s4.5,10,10,10c5.5,0,10-4.5,10-10S17.5,2,12,2z M18.9,8H16c-0.3-1.2-0.8-2.4-1.4-3.6
		C16.4,5.1,18,6.3,18.9,8z M12,4c0.8,1.2,1.5,2.5,1.9,4h-3.8C10.5,6.6,11.2,5.2,12,4z M4.3,14C4.1,13.4,4,12.7,4,12s0.1-1.4,0.3-2
		h3.4c-0.1,0.7-0.1,1.3-0.1,2s0.1,1.3,0.1,2H4.3z M5.1,16H8c0.3,1.2,0.8,2.5,1.4,3.6C7.6,18.9,6,17.7,5.1,16z M8,8H5.1
		c1-1.7,2.5-2.9,4.3-3.6C8.8,5.6,8.4,6.8,8,8z M12,20c-0.8-1.2-1.5-2.5-1.9-4h3.8C13.5,17.4,12.8,18.8,12,20z M14.3,14H9.7
		c-0.1-0.7-0.2-1.3-0.2-2s0.1-1.4,0.2-2h4.7c0.1,0.6,0.2,1.3,0.2,2S14.4,13.3,14.3,14z M14.6,19.6c0.6-1.1,1.1-2.3,1.4-3.6h2.9
		C18,17.6,16.4,18.9,14.6,19.6z M16.4,14c0.1-0.7,0.1-1.3,0.1-2s-0.1-1.3-0.1-2h3.4c0.2,0.6,0.3,1.3,0.3,2s-0.1,1.4-0.3,2H16.4z"/>
</g>
</svg>
