<?xml version="1.0" encoding="utf-8"?>
<!-- Generator: Adobe Illustrator 22.1.0, SVG Export Plug-In . SVG Version: 6.00 Build 0)  -->
<svg version="1.1" id="Layer_1" xmlns="http://www.w3.org/2000/svg" xmlns:xlink="http://www.w3.org/1999/xlink" x="0px" y="0px"
	 viewBox="0 0 24 24" style="enable-background:new 0 0 24 24;" xml:space="preserve">
<style type="text/css">
	.st0{fill:none;}
	.st1{fill:#FFFFFF;stroke:#FFFFFF;stroke-miterlimit:10;}
</style>
<g id="Bounding_Boxes">
	<g id="ui_x5F_spec_x5F_header_copy_3">
	</g>
	<path class="st0" d="M0,0h24v24H0V0z"/>
</g>
<g id="Rounded">
	<g id="ui_x5F_spec_x5F_header_copy_6">
	</g>
	<g>
		<path class="st1" d="M12,2C6.5,2,2,6.5,2,12s4.5,10,10,10c5.5,0,10-4.5,10-10S17.5,2,12,2z M12,20c-4.4,0-8-3.6-8-8s3.6-8,8-8
			s8,3.6,8,8S16.4,20,12,20z"/>
		<path class="st1" d="M11.8,7L11.8,7C11.3,7,11,7.3,11,7.7v4.7c0,0.4,0.2,0.7,0.5,0.9l4.1,2.5c0.3,0.2,0.8,0.1,1-0.2l0,0
			c0.2-0.3,0.1-0.8-0.2-1l-3.9-2.3V7.7C12.5,7.3,12.2,7,11.8,7z"/>
	</g>
</g>
</svg>
